<?xml version="1.0" standalone="no"?>
<!DOCTYPE svg PUBLIC "-//W3C//DTD SVG 20010904//EN"
 "http://www.w3.org/TR/2001/REC-SVG-20010904/DTD/svg10.dtd">
<svg version="1.0" xmlns="http://www.w3.org/2000/svg"
 width="694.000000pt" height="694.000000pt" viewBox="0 0 694.000000 694.000000"
 preserveAspectRatio="xMidYMid meet">
<metadata>
Created by potrace 1.14, written by Peter Selinger 2001-2017
</metadata>
<g transform="translate(0.000000,694.000000) scale(0.100000,-0.100000)"
fill="#000000" stroke="none">
<path d="M4680 6872 c-56 -83 -164 -193 -250 -254 -65 -46 -218 -128 -239
-128 -6 0 -19 -4 -29 -9 -9 -5 -60 -31 -112 -57 -52 -25 -102 -52 -110 -58 -8
-7 -26 -17 -40 -24 -32 -16 -183 -124 -247 -177 -78 -65 -234 -224 -302 -309
-206 -259 -352 -563 -426 -886 -54 -238 -64 -564 -25 -790 5 -30 12 -71 15
-90 5 -29 15 -72 40 -165 1 -5 6 -25 10 -43 8 -36 39 -64 61 -55 8 3 30 28 51
57 289 401 731 679 1203 757 131 21 158 23 320 24 189 0 250 -6 409 -41 140
-32 256 -71 383 -131 84 -40 99 -44 114 -32 24 20 116 219 152 329 70 214 91
356 87 590 -4 162 -6 201 -19 263 -3 12 -8 36 -11 52 -36 181 -108 370 -204
539 -132 231 -367 471 -596 608 -67 40 -177 98 -185 98 -3 0 -25 -31 -50 -68z"/>
<path d="M1778 6555 c-2 -1 -39 -5 -83 -9 -102 -9 -284 -49 -394 -88 -167 -58
-368 -168 -491 -267 -111 -90 -240 -215 -240 -233 0 -6 17 -31 38 -57 139
-168 214 -356 237 -591 11 -113 53 -301 96 -430 132 -401 373 -744 718 -1023
112 -91 354 -232 491 -287 30 -12 69 -28 85 -35 81 -35 322 -97 424 -110 30
-4 63 -9 75 -11 12 -2 85 -7 163 -10 150 -7 173 -2 173 36 0 9 -14 35 -31 56
-46 58 -151 220 -191 294 -78 147 -159 380 -182 520 -3 19 -8 46 -11 60 -19
88 -25 368 -12 490 44 394 229 798 494 1080 18 19 33 39 33 45 0 11 -105 115
-179 179 -115 98 -374 243 -528 295 -94 31 -201 59 -278 71 -39 6 -83 13 -100
16 -31 5 -302 13 -307 9z"/>
<path d="M4678 4395 c-2 -2 -44 -5 -93 -6 -337 -8 -704 -116 -1014 -301 -50
-29 -92 -61 -95 -72 -7 -29 14 -53 58 -66 70 -21 253 -106 344 -161 312 -187
553 -450 718 -784 136 -278 195 -544 189 -855 -2 -91 -6 -176 -9 -190 -3 -14
-7 -43 -10 -65 -3 -22 -8 -58 -12 -81 -5 -33 -3 -42 11 -47 30 -12 139 -35
195 -42 30 -3 69 -8 85 -10 62 -9 294 -5 370 5 113 16 125 18 212 39 564 139
1022 547 1227 1093 38 104 75 243 79 302 l2 38 -86 32 c-200 73 -345 181 -494
367 -208 261 -497 482 -807 617 -108 48 -313 117 -372 126 -21 4 -41 8 -45 10
-3 2 -24 7 -46 10 -51 8 -92 15 -130 21 -16 3 -77 8 -135 11 -58 3 -113 7
-122 8 -9 2 -18 2 -20 1z"/>
<path d="M945 4177 c-205 -110 -352 -226 -502 -397 -207 -234 -345 -520 -408
-840 -21 -106 -28 -444 -12 -565 14 -105 62 -291 92 -360 7 -16 32 -74 55
-128 24 -54 51 -108 60 -120 l18 -22 99 32 c112 36 131 41 210 50 110 13 247
6 348 -17 28 -6 61 -13 75 -15 14 -2 52 -9 85 -15 170 -30 473 -32 645 -4 75
12 228 45 280 61 30 9 61 17 68 19 35 7 217 82 306 126 255 127 514 330 682
533 27 33 55 66 62 73 23 25 160 237 195 303 83 156 163 365 152 398 -9 28
-32 29 -102 4 -75 -27 -240 -69 -303 -78 -25 -3 -56 -8 -70 -10 -68 -14 -341
-21 -400 -11 -14 3 -52 7 -85 11 -72 8 -247 46 -331 73 -168 55 -316 128 -479
237 -166 111 -297 233 -420 390 -57 74 -155 218 -155 230 0 17 -55 85 -69 85
-9 0 -52 -20 -96 -43z"/>
<path d="M3651 3561 c-11 -7 -15 -38 -16 -124 -3 -111 -12 -236 -20 -267 -2
-8 -6 -32 -10 -53 -39 -270 -210 -637 -403 -867 -281 -335 -708 -582 -1117
-646 -73 -11 -74 -19 -35 -215 39 -193 134 -423 245 -594 84 -130 216 -279
335 -379 255 -214 514 -332 880 -401 76 -15 414 -14 509 1 52 8 96 16 98 17 1
2 4 61 7 133 2 71 7 140 10 154 3 14 8 36 11 49 20 102 68 224 127 319 42 68
110 201 146 282 58 132 133 397 147 515 4 33 10 79 14 102 5 22 8 119 9 215 0
174 -5 240 -34 413 -38 231 -158 538 -292 750 -124 195 -309 402 -480 539 -81
65 -103 74 -131 57z"/>
</g>
</svg>
